<svg xmlns="http://www.w3.org/2000/svg" viewBox="0 0 540 330" width="540" height="330" font-family="system-ui, -apple-system, 'Segoe UI', Roboto, sans-serif"><rect width="540" height="330" fill="#ffffff"/><text x="20" y="28" font-size="15" font-weight="700" fill="#111827">Per-class metrics — precision, recall, F1</text><text x="20" y="50" font-family="system-ui, -apple-system, 'Segoe UI', Roboto, sans-serif" font-size="12" fill="#6b7280">macro F1 = 0.596 (unweighted mean of per-class F1)</text><line x1="60" y1="286.0" x2="520" y2="286.0" stroke="#eef1f5"/><text x="54" y="290.0" text-anchor="end" font-size="10" fill="#6b7280">0.00</text><line x1="60" y1="238.5" x2="520" y2="238.5" stroke="#eef1f5"/><text x="54" y="242.5" text-anchor="end" font-size="10" fill="#6b7280">0.25</text><line x1="60" y1="191.0" x2="520" y2="191.0" stroke="#eef1f5"/><text x="54" y="195.0" text-anchor="end" font-size="10" fill="#6b7280">0.50</text><line x1="60" y1="143.5" x2="520" y2="143.5" stroke="#eef1f5"/><text x="54" y="147.5" text-anchor="end" font-size="10" fill="#6b7280">0.75</text><line x1="60" y1="96.0" x2="520" y2="96.0" stroke="#eef1f5"/><text x="54" y="100.0" text-anchor="end" font-size="10" fill="#6b7280">1.00</text><rect x="76" y="97.58333333333331" width="34" height="188.41666666666669" rx="4" fill="#16a34a" fill-opacity="0.25"/><text x="93.0" y="92.58333333333331" text-anchor="middle" font-size="10" fill="#6b7280">0.992</text><text x="93.0" y="300" text-anchor="middle" font-size="10" fill="#6b7280">precision</text><rect x="119" y="113.40458015267177" width="34" height="172.59541984732823" rx="4" fill="#16a34a" fill-opacity="0.55"/><text x="136.0" y="108.40458015267177" text-anchor="middle" font-size="10" fill="#6b7280">0.908</text><text x="136.0" y="300" text-anchor="middle" font-size="10" fill="#6b7280">recall</text><rect x="162" y="105.84063745019918" width="34" height="180.15936254980082" rx="4" fill="#16a34a" fill-opacity="1"/><text x="179.0" y="100.84063745019918" text-anchor="middle" font-size="10" fill="#6b7280">0.948</text><text x="179.0" y="300" text-anchor="middle" font-size="10" fill="#6b7280">F1</text><text x="136.0" y="300" text-anchor="middle" font-size="12" font-weight="600" fill="#111827">positive (n=131)</text><rect x="221" y="267.0" width="34" height="19.0" rx="4" fill="#d97706" fill-opacity="0.25"/><text x="238.0" y="262.0" text-anchor="middle" font-size="10" fill="#6b7280">0.100</text><rect x="264" y="248.0" width="34" height="38.0" rx="4" fill="#d97706" fill-opacity="0.55"/><text x="281.0" y="243.0" text-anchor="middle" font-size="10" fill="#6b7280">0.200</text><rect x="307" y="260.6666666666667" width="34" height="25.333333333333332" rx="4" fill="#d97706" fill-opacity="1"/><text x="324.0" y="255.66666666666669" text-anchor="middle" font-size="10" fill="#6b7280">0.133</text><text x="281.0" y="300" text-anchor="middle" font-size="12" font-weight="600" fill="#111827">neutral (n=5)</text><rect x="366" y="172.0" width="34" height="114.0" rx="4" fill="#dc2626" fill-opacity="0.25"/><text x="383.0" y="167.0" text-anchor="middle" font-size="10" fill="#6b7280">0.600</text><rect x="409" y="123.14285714285714" width="34" height="162.85714285714286" rx="4" fill="#dc2626" fill-opacity="0.55"/><text x="426.0" y="118.14285714285714" text-anchor="middle" font-size="10" fill="#6b7280">0.857</text><rect x="452" y="151.8823529411765" width="34" height="134.1176470588235" rx="4" fill="#dc2626" fill-opacity="1"/><text x="469.0" y="146.8823529411765" text-anchor="middle" font-size="10" fill="#6b7280">0.706</text><text x="426.0" y="300" text-anchor="middle" font-size="12" font-weight="600" fill="#111827">negative (n=14)</text><text x="20" y="314" font-size="11" fill="#6b7280">F1 = harmonic mean of precision and recall</text></svg>